<?xml version="1.0" encoding="UTF-8"?>
<!-- Generator: visioncortex VTracer 0.6.5 -->
<svg version="1.1" xmlns="http://www.w3.org/2000/svg" width="2490" height="1164">
<path d="M0 0 C5.326035 0.49091 8.952358 1.676123 13.5 4.4375 C14.105457 4.79457 14.710913 5.151641 15.334717 5.519531 C20.211849 8.433877 24.942936 11.555744 29.645508 14.741943 C35.088901 18.424198 40.617053 21.966119 46.162964 25.49115 C55.877993 31.666818 65.501234 37.963847 75.0625 44.375 C82.594281 49.424201 90.141833 54.420677 97.866455 59.172119 C104.234982 63.105206 110.490565 67.20915 116.75 71.3125 C117.030703 71.496453 117.030703 71.496453 118.451233 72.427368 C121.24868 74.26082 124.045591 76.095088 126.842285 77.929688 C142.369959 88.113158 157.933129 98.250752 173.782715 107.928711 C185.555604 115.126188 197.071694 122.635631 208.475403 130.403229 C213.155271 133.589931 217.845544 136.761256 222.535156 139.933594 C223.449887 140.552721 224.364618 141.171849 225.307068 141.809738 C232.542042 146.702109 239.808453 151.543023 247.125 156.3125 C247.637594 156.64676 248.150187 156.98102 248.678314 157.325409 C253.981775 160.779488 259.305857 164.200464 264.648438 167.59375 C266.599164 168.833012 268.549762 170.072471 270.5 171.3125 C270.988424 171.622902 271.476848 171.933304 271.980072 172.253113 C284.960485 180.515932 297.720257 189.113442 310.512207 197.663574 C320.903778 204.608398 331.315509 211.516233 341.790039 218.335205 C352.124795 225.065865 362.417502 231.860079 372.712227 238.651752 C397.223372 254.821919 397.223372 254.821919 407.5 261.5 C418.311725 268.527514 429.077694 275.624491 439.844696 282.720245 C441.282115 283.667477 442.719669 284.614502 444.157227 285.561523 C453.698635 291.847824 463.231165 298.146311 472.730469 304.496094 C478.044315 308.04774 483.380282 311.549241 488.78125 314.967041 C499.351081 321.674371 509.373128 328.995167 519 337 C519.825 337.669023 520.65 338.338047 521.5 339.027344 C523 341 523 341 523.445312 343.960938 C522.197832 352.474444 513.35778 358.571225 507.056885 363.757568 C500.175543 369.510144 493.967679 375.924195 487.723877 382.35083 C483.524338 386.64695 479.283901 390.690224 474.574219 394.425781 C468.408283 399.322141 462.98235 404.862332 457.5 410.5 C452.021488 416.133721 446.600138 421.670824 440.4375 426.5625 C434.690506 431.144507 429.610402 436.22864 424.5 441.5 C418.982292 447.191494 413.468097 452.540512 407.245819 457.479065 C401.276715 462.284819 395.992081 467.794221 390.625 473.25 C389.561678 474.323393 388.497878 475.396312 387.433594 476.46875 C385.484833 478.433627 383.538873 480.401183 381.596191 482.37207 C377.546666 486.475345 373.485623 490.528214 369.1875 494.375 C368.751555 494.765828 368.31561 495.156655 367.866455 495.559326 C365.325653 497.832528 362.763977 500.079918 360.1875 502.3125 C352.420097 509.085296 344.817614 516.071447 337.601562 523.429688 C335.817303 525.179132 333.956039 526.807156 332.0625 528.4375 C329.254237 530.856178 326.600294 533.358997 324 536 C320.799705 539.2503 317.457754 542.247242 314 545.21875 C311.916629 547.074252 309.957188 549.012231 308 551 C304.874915 554.16748 301.637581 557.118852 298.265625 560.019531 C294.975668 562.895407 291.770513 565.861583 288.563477 568.829346 C285.824112 571.356238 283.046699 573.822418 280.21875 576.25 C275.414297 580.437912 270.968652 584.95962 266.5 589.5 C261.390054 594.691968 256.257426 599.747988 250.728516 604.494141 C248.544807 606.396558 246.516096 608.42187 244.5 610.5 C241.193516 613.845914 237.798535 616.992276 234.230469 620.054688 C230.949627 622.916087 227.758207 625.872949 224.563232 628.82959 C221.788385 631.389176 218.974449 633.888583 216.113281 636.351562 C211.23619 640.602079 206.759627 645.216701 202.263672 649.863281 C198.580683 653.608322 194.780225 657.05367 190.671875 660.324219 C184.688004 665.101481 179.389148 670.449642 174.0625 675.9375 C172.246793 677.806676 170.424295 679.668857 168.597656 681.527344 C167.808831 682.339373 167.020005 683.151401 166.207275 683.988037 C164.164184 685.850344 162.570039 687.023466 160 688 C155.94726 687.711891 153.70212 686.295606 150.5625 683.8125 C144.3413 679.066316 137.742744 674.94884 131.111572 670.803955 C123.759485 666.184804 116.539536 661.380342 109.322083 656.554306 C103.176823 652.446513 97.015157 648.36511 90.835938 644.308594 C89.121092 643.182294 87.406248 642.055992 85.691406 640.929688 C84.825317 640.360889 83.959229 639.79209 83.066895 639.206055 C64.890877 627.264546 46.810816 615.192502 28.813965 602.982178 C13.893385 592.867702 -1.129491 582.919893 -16.5 573.5 C-44.468011 556.154216 -71.706072 537.600557 -98.962494 519.165375 C-118.455838 505.982528 -138.035159 492.932314 -157.914307 480.33667 C-170.668802 472.253773 -183.184593 463.841517 -195.6875 455.375 C-208.312149 446.826713 -220.92748 438.303291 -233.856445 430.220215 C-250.406986 419.8697 -266.778249 409.263897 -283.0625 398.5 C-284.904197 397.285004 -286.745993 396.07016 -288.587891 394.855469 C-295.980823 389.977122 -303.369593 385.092895 -310.734375 380.172119 C-311.670672 379.546602 -312.60697 378.921084 -313.57164 378.276611 C-315.338395 377.095324 -317.104378 375.91288 -318.8694 374.729004 C-323.492157 371.636822 -328.149938 368.617481 -332.875015 365.683807 C-342.352138 359.778059 -351.091751 352.908249 -359 345 C-359 336.828285 -357.02805 335.982124 -351.836914 330.766602 C-348.297626 327.235617 -344.667219 323.882013 -340.859375 320.640625 C-338.105043 318.210332 -335.568381 315.577227 -332.992188 312.960938 C-331.096729 311.095212 -329.145533 309.353407 -327.125 307.625 C-323.936767 304.886871 -320.947653 301.99245 -318 299 C-315.134208 296.090918 -312.237332 293.27242 -309.125 290.625 C-305.001724 287.102687 -301.236532 283.264337 -297.428955 279.409424 C-294.054474 276.009301 -290.575206 272.812443 -286.925781 269.707031 C-283.963937 267.081624 -281.223724 264.245992 -278.46875 261.40625 C-275.772447 258.778207 -272.957437 256.328119 -270.114746 253.86084 C-266.686088 250.843842 -263.377027 247.703739 -260.0625 244.5625 C-258.563838 243.147097 -257.065139 241.731734 -255.566406 240.316406 C-254.808599 239.599849 -254.050791 238.883291 -253.27002 238.14502 C-249.685316 234.75771 -246.092423 231.379119 -242.5 228 C-241.08329 226.666712 -239.666624 225.333379 -238.25 224 C-235.416667 221.333333 -232.583333 218.666667 -229.75 216 C-229.048589 215.339839 -228.347178 214.679678 -227.624512 213.999512 C-226.209511 212.667765 -224.794472 211.33606 -223.379395 210.004395 C-219.811925 206.647114 -216.245145 203.289105 -212.679688 199.929688 C-211.244828 198.578086 -209.809933 197.226523 -208.375 195.875 C-207.67512 195.215645 -206.975239 194.556289 -206.25415 193.876953 C-202.142655 190.006637 -198.017248 186.15185 -193.881592 182.307373 C-188.742912 177.530072 -183.669681 172.723254 -178.75 167.71875 C-176.292591 165.305223 -173.678117 163.091376 -171.066406 160.847656 C-168.788505 158.810894 -166.645814 156.675259 -164.5 154.5 C-161.138855 151.092812 -157.662988 147.925418 -154.03125 144.8125 C-150.961627 142.073452 -148.114714 139.123164 -145.226562 136.195312 C-142.553668 133.559933 -139.746317 131.122335 -136.898438 128.679688 C-135.020292 127.017954 -133.256945 125.288745 -131.5 123.5 C-129.169746 121.127759 -126.778956 118.908865 -124.25 116.75 C-120.836766 113.813031 -117.659568 110.702895 -114.5 107.5 C-110.785996 103.735206 -106.986635 100.176354 -102.960938 96.742188 C-99.907708 94.029558 -97.085969 91.093995 -94.21875 88.1875 C-91.592289 85.598031 -88.830235 83.21163 -86.03125 80.8125 C-83.763614 78.789071 -81.63423 76.663467 -79.5 74.5 C-76.141432 71.095424 -72.669067 67.929679 -69.039062 64.820312 C-65.9236 62.039075 -63.033435 59.042486 -60.101562 56.070312 C-57.989667 53.98982 -55.822573 52.084223 -53.484375 50.265625 C-51.734417 48.773556 -50.142648 47.145798 -48.525879 45.512207 C-45.358202 42.372912 -42.070463 39.357463 -38.8125 36.3125 C-33.949067 31.755915 -29.112828 27.187459 -24.4375 22.4375 C-21.150311 19.111638 -17.77804 15.977448 -14.226562 12.9375 C-11.269549 10.364379 -8.385534 7.715248 -5.5 5.0625 C-4.958755 4.565002 -4.41751 4.067505 -3.859863 3.554932 C-2.572581 2.370673 -1.286193 1.185442 0 0 Z M3.0625 65.6875 C2.602869 66.084692 2.143237 66.481885 1.669678 66.891113 C0.654565 67.770956 -0.354874 68.657377 -1.359375 69.549316 C-3.098717 71.087288 -4.859128 72.598051 -6.625 74.105469 C-18.968047 84.679152 -30.839114 95.652232 -42.331055 107.145752 C-44.152823 108.965289 -45.982524 110.776612 -47.8125 112.587891 C-48.982257 113.754721 -50.151546 114.922021 -51.320312 116.089844 C-51.862937 116.625283 -52.405562 117.160722 -52.96463 117.712387 C-56.247952 121.015845 -58.645178 123.693658 -59.375 128.4375 C-58.721397 132.903786 -55.797983 135.397297 -52.296387 138.041992 C-51.263052 138.718859 -50.223787 139.386734 -49.179688 140.046875 C-48.612344 140.415315 -48.045 140.783755 -47.460464 141.163361 C-45.603596 142.366775 -43.739404 143.5583 -41.875 144.75 C-40.56984 145.593056 -39.265241 146.436981 -37.961182 147.281738 C-35.28496 149.014182 -32.60615 150.742511 -29.925293 152.467773 C-24.61664 155.887535 -19.336744 159.350921 -14.056274 162.813965 C-3.519396 169.720424 7.042854 176.588007 17.609863 183.448242 C29.833345 191.384141 42.049847 199.330679 54.254883 207.294922 C55.237629 207.936199 56.220377 208.577475 57.203125 209.21875 C57.690008 209.536464 58.176891 209.854177 58.678528 210.181519 C61.862312 212.258736 65.047866 214.333215 68.234375 216.40625 C77.377287 222.357178 86.506065 228.328648 95.617188 234.328125 C96.040612 234.60691 96.040612 234.60691 98.183395 236.017731 C102.441039 238.821363 106.697796 241.626331 110.953369 244.433105 C112.540514 245.478862 114.127671 246.524599 115.714844 247.570312 C116.431754 248.043741 117.148664 248.517169 117.887299 249.004944 C119.920309 250.343749 121.95965 251.672416 124 253 C124.719337 253.477245 125.438674 253.95449 126.17981 254.446198 C126.884806 254.904489 127.589802 255.362781 128.316162 255.834961 C128.946468 256.249213 129.576775 256.663466 130.226181 257.090271 C132 258 132 258 135.226562 258.070312 C138.467649 256.819527 140.040603 255.435026 142.375 252.875 C145.694917 249.281532 149.169567 246.06544 152.87207 242.865234 C156.398306 239.774316 159.786398 236.539714 163.1875 233.3125 C168.817404 227.991622 174.467616 222.696221 180.170898 217.454102 C183.102176 214.757767 186.020593 212.048671 188.925781 209.324219 C189.593354 208.69854 190.260928 208.072861 190.94873 207.428223 C192.234223 206.222264 193.51849 205.014997 194.80127 203.806152 C198.433434 200.400068 202.143313 197.150118 206 194 C206 188.956592 206 188.956592 203.046143 185.874512 C199.130065 181.965856 194.901858 178.992276 190.261719 176.007812 C189.43195 175.464407 188.602182 174.921002 187.747269 174.36113 C185.065817 172.607728 182.376836 170.866278 179.6875 169.125 C177.823065 167.909218 175.959136 166.692659 174.095703 165.475342 C170.410874 163.069832 166.7232 160.668796 163.032715 158.271973 C158.812261 155.530225 154.60001 152.776369 150.394531 150.011719 C131.942723 137.887229 113.348524 125.98945 94.669189 114.21875 C84.951577 108.088106 75.320613 101.825296 65.703125 95.539062 C63.802143 94.296784 61.9011 93.054599 60 91.8125 C59.043677 91.187627 58.087354 90.562754 57.102051 89.918945 C48.607597 84.374903 40.067359 78.903401 31.511719 73.454346 C31.015732 73.137876 30.519745 72.821406 30.008728 72.495346 C28.571346 71.579171 27.131887 70.666256 25.692383 69.753418 C23.932571 68.607338 22.195714 67.424996 20.487305 66.203613 C17.164715 63.833407 14.796503 62.148209 10.746094 61.394531 C7.318452 62.15027 5.696004 63.370183 3.0625 65.6875 Z M-115 176 C-116.686622 177.500987 -118.374153 179.000953 -120.0625 180.5 C-123.592007 183.679251 -126.977988 186.951239 -130.308594 190.335938 C-132.67671 192.66577 -135.183902 194.81583 -137.699219 196.984375 C-140.998365 199.874629 -144.217183 202.85022 -147.436279 205.829102 C-149.501426 207.734096 -151.56461 209.629977 -153.705811 211.449707 C-161.071265 217.715107 -167.73676 224.698728 -174.501221 231.597168 C-180.821101 238.033658 -187.15389 244.053369 -194.219971 249.66748 C-199.771482 254.207157 -204.675658 259.509423 -209.6875 264.625 C-211.833741 266.808162 -213.983331 268.987949 -216.136719 271.164062 C-216.648144 271.681077 -217.15957 272.198092 -217.686493 272.730774 C-221.12985 276.187909 -224.685668 279.461478 -228.401611 282.626465 C-230.373299 284.320785 -232.194857 286.130388 -234 288 C-237.200295 291.2503 -240.542246 294.247242 -244 297.21875 C-246.788855 299.702574 -249.37687 302.367114 -251.996094 305.027344 C-254.582462 307.573378 -257.315353 309.920216 -260.066406 312.285156 C-262.562569 314.498925 -264.878269 316.862619 -267.207031 319.25 C-269.118406 321.115569 -271.130821 322.796872 -273.1875 324.5 C-277.656571 328.386527 -280.74668 331.96016 -281.25 338 C-278.072764 345.625366 -268.810201 350.338002 -262.121094 354.675781 C-261.656228 354.980813 -261.656228 354.980813 -259.303726 356.52446 C-256.84805 358.134382 -254.389121 359.739061 -251.928284 361.341064 C-249.472325 362.941434 -247.020529 364.548127 -244.568359 366.154297 C-241.700545 368.032546 -238.832383 369.91024 -235.962418 371.785202 C-230.567785 375.310473 -225.190585 378.859628 -219.835938 382.445312 C-213.672852 386.570451 -207.447839 390.585994 -201.1875 394.5625 C-181.720251 406.976916 -162.443503 419.672462 -143.220428 432.461304 C-141.396131 433.674821 -139.571379 434.887655 -137.746124 436.099731 C-127.915845 442.630283 -118.130102 449.196422 -108.591782 456.149857 C-101.379601 461.340294 -93.910343 464.876951 -85 466 C-80.467519 465.07026 -78.129687 462.251421 -75.054688 459.03125 C-72.818223 456.820297 -70.461246 454.894811 -68 452.9375 C-58.383926 445.198016 -49.560276 436.605877 -40.867188 427.855469 C-40.324804 427.310044 -39.782421 426.76462 -39.223602 426.202667 C-36.505586 423.466948 -33.794916 420.724497 -31.095215 417.970703 C-26.454576 413.262808 -21.827963 408.749584 -16.640625 404.644531 C-9.362213 398.848105 -2.999397 392.140871 3.5 385.5 C10.828074 378.012413 18.055714 370.780432 26.279297 364.275391 C31.760971 359.814215 36.573638 354.553182 41.5 349.5 C53.152536 337.547491 53.152536 337.547491 59.371094 332.613281 C65.928636 327.395897 71.782813 321.518187 77.682861 315.577881 C79.583839 313.666039 81.495469 311.765306 83.408203 309.865234 C84.628247 308.643871 85.847672 307.421889 87.066406 306.199219 C87.350224 305.917425 87.350224 305.917425 88.786514 304.491379 C93.739833 299.478571 93.739833 299.478571 95 296 C94.976562 294.078125 94.976562 294.078125 94.625 292.25 C94.521875 291.71375 94.521875 291.71375 94 289 C93.01 288.67 92.02 288.34 91 288 C91 287.34 91 286.68 91 286 C90.321228 285.567681 89.642456 285.135361 88.943115 284.689941 C66.069533 270.112026 66.069533 270.112026 56.25708 263.515869 C50.500547 259.649807 44.679523 255.886134 38.851562 252.128906 C38.131782 251.664683 37.412002 251.200459 36.67041 250.722168 C35.216591 249.784589 33.762679 248.847154 32.308289 247.910461 C20.899614 240.560302 9.555893 233.114374 -1.768982 225.635864 C-28.439675 208.024874 -28.439675 208.024874 -41.3479 199.644531 C-47.45234 195.67627 -53.531581 191.671086 -59.605469 187.65625 C-61.343226 186.508735 -63.081019 185.361274 -64.818848 184.213867 C-67.423099 182.494376 -70.026597 180.773802 -72.627625 179.049438 C-75.053189 177.441452 -77.481423 175.837569 -79.910156 174.234375 C-80.637283 173.750695 -81.36441 173.267014 -82.113571 172.768677 C-95.685076 163.830352 -103.228441 165.032972 -115 176 Z M234.367676 233.543457 C232.698141 235.321473 230.918897 236.9195 229.0625 238.5 C228.44375 239.038828 227.825 239.577656 227.1875 240.132812 C225.46873 241.599905 223.738871 243.049226 222 244.492188 C214.357592 250.879756 207.218143 257.601445 200.301025 264.772949 C196.612091 268.555987 192.813074 272.034469 188.679688 275.324219 C182.614127 280.164815 177.228479 285.579416 171.8125 291.125 C166.3131 296.73361 160.845247 302.27631 154.870361 307.385742 C151.634199 310.178786 148.54479 313.127816 145.4375 316.0625 C144.028803 317.388187 142.619945 318.713704 141.210938 320.039062 C140.858862 320.370513 140.858862 320.370513 139.077148 322.047852 C135.914275 325.020387 132.738286 327.978775 129.5625 330.9375 C122.070898 337.923006 114.612394 344.943424 107.157227 351.967773 C104.311441 354.648661 101.464458 357.328273 98.616943 360.007324 C97.213384 361.328492 95.810544 362.650424 94.408447 363.973145 C90.695905 367.473751 86.969566 370.958052 83.222656 374.421875 C82.832715 374.784102 82.832715 374.784102 80.859375 376.617188 C79.362379 378.007256 77.861263 379.392904 76.355469 380.773438 C75.682578 381.399922 75.009687 382.026406 74.316406 382.671875 C73.722874 383.219404 73.129341 383.766934 72.517822 384.331055 C69.133499 388.05234 68.7748 391.045594 69 396 C72.623234 399.896171 76.254204 402.605336 80.8125 405.3125 C88.953431 410.271585 96.874509 415.532483 104.782471 420.85083 C110.460715 424.662572 116.170895 428.41774 121.917969 432.125 C132.114737 438.703463 142.245588 445.380954 152.375 452.0625 C153.836296 453.025799 155.297592 453.989098 156.758899 454.952381 C168.912003 462.964492 181.052593 470.994932 193.140137 479.105713 C198.058409 482.399357 202.998816 485.648353 207.979248 488.846939 C213.923489 492.66574 219.819454 496.530543 225.617325 500.569092 C228.555906 502.614849 231.510957 504.63614 234.467041 506.656494 C235.96023 507.686048 237.445855 508.726651 238.924072 509.777588 C247.343102 515.745706 254.331969 520.689147 264.965088 519.755615 C269.804281 518.55078 272.829044 516.35976 276.375 512.9375 C276.691465 512.656807 276.691465 512.656807 278.292969 511.236328 C279.577059 510.092154 280.847385 508.932352 282.10376 507.757812 C283.984019 506.014814 285.913679 504.348346 287.863281 502.683594 C293.210792 498.02464 298.119488 492.916655 303.064697 487.839355 C308.078892 482.700761 313.167666 477.96419 318.799393 473.487946 C324.456121 468.927535 329.441223 463.702095 334.5 458.5 C339.978512 452.866279 345.399862 447.329176 351.5625 442.4375 C357.309494 437.855493 362.389598 432.77136 367.5 427.5 C373.0543 421.770761 378.632354 416.367833 384.883545 411.400635 C390.152435 407.164458 394.800411 402.347608 399.5 397.5 C405.044639 391.780727 410.612285 386.382823 416.851822 381.423294 C422.266402 377.070322 427.077662 372.140139 431.9375 367.1875 C432.864751 366.250172 433.792484 365.313322 434.720703 364.376953 C436.414376 362.667192 438.104652 360.954327 439.792725 359.239014 C441.852395 357.149728 443.922814 355.071856 446 353 C446 347 446 347 444.1875 345 C434.065082 334.987908 420.641106 327.752668 408.8125 320 C405.34229 317.721526 401.87368 315.440615 398.404898 313.159969 C396.945399 312.200505 395.485678 311.24138 394.025955 310.282257 C385.92214 304.955467 377.84467 299.590644 369.794189 294.183594 C364.641502 290.730874 359.449857 287.343266 354.238281 283.980469 C344.699626 277.824227 335.218871 271.581171 325.742676 265.329346 C322.871981 263.435508 320.0005 261.542865 317.128906 259.650391 C301.913911 249.619213 301.913911 249.619213 294.795242 244.848877 C288.175186 240.413404 281.494204 236.095198 274.724365 231.891846 C273.139493 230.907689 271.556927 229.919898 269.974609 228.931641 C262.548018 224.302807 256.865181 221.299144 247.922363 222.446289 C242.297139 224.066559 238.216296 229.383963 234.367676 233.543457 Z M14.75 439.1875 C14.450051 439.445917 14.450051 439.445917 12.932129 440.753662 C5.746274 447.00475 -1.129682 453.58699 -8.037109 460.141602 C-14.454971 466.217815 -20.900835 472.175936 -27.8125 477.6875 C-39.048947 486.82322 -39.048947 486.82322 -40.5625 491.878906 C-40.779949 495.025118 -40.095538 496.861153 -38.328857 499.428711 C-35.81054 502.209182 -33.119466 504.337275 -30.050781 506.453125 C-29.448089 506.875877 -28.845397 507.298629 -28.224442 507.734192 C-19.335109 513.920595 -10.246119 519.816202 -1.1875 525.75 C2.246458 528.004361 5.679461 530.260172 9.111961 532.516752 C10.096946 533.16426 11.081997 533.811667 12.067116 534.458971 C21.368343 540.571082 30.627018 546.74526 39.875 552.9375 C49.116562 559.12348 58.405421 565.200629 67.833008 571.10083 C74.374741 575.237302 80.795328 579.538587 87.203125 583.878906 C87.667757 584.19349 87.667757 584.19349 90.019073 585.785477 C94.70923 588.9637 99.393871 592.149722 104.071777 595.345947 C114.440324 602.405332 124.938952 609.109466 135.753906 615.465332 C140.207217 618.092453 144.479332 620.918594 148.710938 623.890625 C151.697591 625.338081 153.718228 625.395551 157 625 C159.019531 623.785156 159.019531 623.785156 160.8125 622.0625 C161.493125 621.421836 162.17375 620.781172 162.875 620.121094 C165.032799 617.967261 167.173942 615.797928 169.3125 613.625 C172.276736 610.617828 175.292136 607.926709 178.628906 605.34375 C186.66158 598.917365 193.873175 591.572331 201.155762 584.324707 C202.813231 582.680348 204.474838 581.042731 206.147949 579.414551 C208.58493 577.038388 211.001463 574.643073 213.414062 572.242188 C213.787956 571.880641 213.787956 571.880641 215.680084 570.050995 C221.335251 564.346288 221.335251 564.346288 222.03418 560.147217 C221.992241 556.285546 221.499684 554.94503 219 552 C216.584418 549.989111 214.003105 548.282245 211.375 546.5625 C210.549275 546.010137 209.72355 545.457773 208.872803 544.888672 C206.980063 543.624474 205.085045 542.364545 203.186035 541.109863 C199.763831 538.847131 196.356538 536.562404 192.949219 534.277344 C164.360855 515.124243 135.591633 496.239788 106.8125 477.375 C106.266461 477.016933 105.720422 476.658865 105.157837 476.289948 C100.133756 472.996377 95.105438 469.709898 90.055664 466.455811 C82.687456 461.706481 75.351501 456.917059 68.070312 452.035156 C65.836721 450.543827 63.60254 449.053386 61.368164 447.563232 C59.859504 446.553901 58.353353 445.540811 56.849609 444.52417 C29.726939 426.208205 29.726939 426.208205 14.75 439.1875 Z " fill="#000000" transform="translate(1165,313)"/>
</svg>
