<?xml version="1.0" encoding="UTF-8" standalone="no"?>
<!-- Generator: visioncortex VTracer 0.6.5 -->

<svg
   version="1.1"
   width="1000"
   height="1000"
   id="svg1"
   xmlns="http://www.w3.org/2000/svg"
   xmlns:svg="http://www.w3.org/2000/svg">
  <defs
     id="defs1" />
  <rect
     style="fill:#2644ec;fill-opacity:1"
     id="rect1"
     width="1000"
     height="1000"
     x="0"
     y="0" />
  <path
     d="m 417.7773,156 c 5.326,0.49091 8.9524,1.67612 13.5,4.4375 0.6055,0.35707 1.2109,0.71414 1.8348,1.08203 4.877,2.91435 9.6081,6.03621 14.3108,9.22241 5.4434,3.68226 10.9716,7.22418 16.5174,10.74921 9.715,6.17567 19.3382,12.4727 28.8995,18.88385 7.5318,5.0492 15.0794,10.04568 22.8041,14.79712 6.3685,3.93309 12.6241,8.03703 18.8834,12.14038 0.2807,0.18395 0.2807,0.18395 1.7012,1.11487 2.7975,1.83345 5.5944,3.66772 8.3911,5.50232 15.5278,10.18347 31.0908,20.32106 46.9404,29.99902 11.7729,7.19748 23.289,14.70692 34.6927,22.47452 4.68,3.1867 9.3702,6.35803 14.0598,9.53036 0.9148,0.61913 1.8295,1.23826 2.7719,1.87615 7.2349,4.89237 14.5015,9.73328 21.8179,14.50276 0.5126,0.33426 1.0252,0.66852 1.5533,1.01291 5.3035,3.45408 10.6277,6.87505 15.9701,10.26834 1.9509,1.23926 3.9014,2.47872 5.8516,3.71875 0.4884,0.3104 0.9768,0.6208 1.4801,0.94061 12.9804,8.26282 25.7402,16.86033 38.5321,25.41046 10.3916,6.94483 20.8033,13.85266 31.2778,20.67163 10.3348,6.73067 20.6275,13.52488 30.9222,20.31655 24.5112,16.17017 24.5112,16.17017 34.7878,22.84825 10.8117,7.02751 21.5777,14.12449 32.3448,21.22024 1.4374,0.94724 2.875,1.89426 4.3125,2.84128 9.5414,6.2863 19.074,12.58479 28.5733,18.93457 5.3137,3.55165 10.6497,7.05315 16.0508,10.47095 10.5698,6.70733 20.5917,14.02813 30.2186,22.03296 0.825,0.66902 1.6501,1.33805 2.5,2.02734 1.5,1.97266 1.5,1.97266 1.9454,4.9336 -1.2475,8.5135 -10.0876,14.61029 -16.3885,19.79663 -6.8814,5.75257 -13.0891,12.16663 -19.333,18.59326 -4.1996,4.29612 -8.44,8.33939 -13.1497,12.07495 -61.73202,58.39388 -123.63909,116.69555 -186.0106,174.40357 -2.7394,2.52689 -5.5168,4.99307 -8.3447,7.42065 -36.11932,36.22557 -75.4452,69.09557 -111.6212,105.27734 -0.7889,0.81203 -1.5777,1.62406 -2.3904,2.4607 -2.0431,1.8623 -3.6373,3.03546 -6.2073,4.01196 -4.0527,-0.2881 -6.2979,-1.70439 -9.4375,-4.1875 -6.2212,-4.74618 -12.8198,-8.86366 -19.4509,-13.00855 -7.3521,-4.61915 -14.5721,-9.42361 -21.7895,-14.24964 -6.1453,-4.1078 -12.3069,-8.1892 -18.4862,-12.24572 -1.7148,-1.1263 -3.4297,-2.2526 -5.1445,-3.3789 -0.8661,-0.5688 -1.7322,-1.1376 -2.6245,-1.72364 -18.176,-11.9415 -36.2561,-24.01355 -54.2529,-36.22387 -14.9206,-10.11448 -29.9435,-20.06229 -45.314,-29.48218 -27.968,-17.34578 -55.2061,-35.89944 -82.4625,-54.33462 -19.4933,-13.18285 -39.0727,-26.23307 -58.95178,-38.82871 -12.7545,-8.0829 -25.2703,-16.49515 -37.7732,-24.96167 -12.6246,-8.54829 -25.24,-17.07171 -38.1689,-25.15478 -16.5506,-10.35052 -32.9218,-20.95632 -49.2061,-31.72022 -1.8417,-1.215 -3.6835,-2.42984 -5.5254,-3.64453 -7.3929,-4.87835 -14.7817,-9.76258 -22.1465,-14.68335 -0.9363,-0.62552 -1.8726,-1.25104 -2.8372,-1.89551 -1.7668,-1.18129 -3.5328,-2.36373 -5.2978,-3.54761 -4.6228,-3.09218 -9.2805,-6.11152 -14.0056,-9.04519 -9.4771,-5.90575 -18.2168,-12.77556 -26.125,-20.68381 0,-8.17171 1.972,-9.01788 7.1631,-14.2334 3.5393,-3.53098 7.1697,-6.88459 10.9775,-10.12598 2.7544,-2.43029 5.291,-5.06339 7.8672,-7.67968 1.8955,-1.86573 3.8467,-3.60753 5.8672,-5.33594 3.1882,-2.73813 6.1773,-5.63255 9.125,-8.625 2.8658,-2.90908 5.7627,-5.72758 8.875,-8.375 4.1233,-3.52231 7.8885,-7.36066 11.696,-11.21558 3.3745,-3.40012 6.8538,-6.59698 10.5032,-9.70239 2.9619,-2.62541 5.7021,-5.46104 8.457,-8.30078 2.6964,-2.62804 5.5114,-5.07813 8.3541,-7.54541 3.4286,-3.017 6.7377,-6.1571 10.0522,-9.29834 1.4987,-1.4154 2.9974,-2.83077 4.4961,-4.24609 0.7578,-0.71656 1.5156,-1.43312 2.2964,-2.17139 3.5847,-3.38731 7.1776,-6.7659 10.77,-10.14502 1.4167,-1.33329 2.8334,-2.66662 4.25,-4 2.8333,-2.66667 5.6667,-5.33333 8.5,-8 0.7014,-0.66016 1.4028,-1.32032 2.1255,-2.00049 1.415,-1.33174 2.83,-2.66345 4.2451,-3.99512 3.5675,-3.35728 7.1343,-6.71528 10.6997,-10.0747 1.4349,-1.3516 2.8698,-2.70317 4.3047,-4.05469 0.6999,-0.65936 1.3998,-1.31871 2.1208,-1.99805 4.1115,-3.87031 8.237,-7.7251 12.3726,-11.56958 5.1387,-4.7773 10.2119,-9.58412 15.1316,-14.58862 2.4574,-2.41353 5.0719,-4.62737 7.6836,-6.87109 2.2779,-2.03677 4.4206,-4.1724 6.5664,-6.34766 3.3611,-3.40719 6.837,-6.57458 10.4687,-9.6875 3.06968,-2.73905 5.91658,-5.68934 8.80468,-8.61719 2.6729,-2.63538 5.4803,-5.07297 8.3282,-7.51562 1.8781,-1.66174 3.6415,-3.39095 5.3984,-5.17969 2.3303,-2.37224 4.721,-4.59114 7.25,-6.75 3.4132,-2.93697 6.5904,-6.04711 9.75,-9.25 3.714,-3.76479 7.5134,-7.32365 11.5391,-10.75781 3.0532,-2.71263 5.8749,-5.6482 8.7421,-8.55469 2.6265,-2.58947 5.3886,-4.97587 8.1875,-7.375 2.2677,-2.02343 4.3971,-4.14903 6.5313,-6.3125 3.3586,-3.40458 6.8309,-6.57032 10.4609,-9.67969 3.1156,-2.78123 6.0057,-5.77782 8.9375,-8.75 2.112,-2.08049 4.279,-3.98609 6.6172,-5.80469 1.75,-1.49206 3.3418,-3.11982 4.9585,-4.75341 3.1677,-3.1393 6.4554,-6.15475 9.7134,-9.19971 4.8634,-4.55658 9.6997,-9.12504 14.375,-13.875 3.2872,-3.32586 6.6595,-6.46005 10.2109,-9.5 2.9572,-2.57312 5.8412,-5.22225 8.7266,-7.875 0.5412,-0.4975 1.0825,-0.995 1.6402,-1.50757 1.2872,-1.18426 2.5736,-2.36949 3.8598,-3.55493 z m 3.0625,65.6875 c -0.4595,0.39719 -0.9193,0.79439 -1.3928,1.20361 -1.0151,0.87985 -2.0246,1.76627 -3.0291,2.65821 -1.7393,1.53797 -3.4997,3.04873 -5.2656,4.55615 -12.343,10.57368 -24.214,21.54676 -35.7061,33.04028 -1.8217,1.81954 -3.6514,3.63086 -5.4814,5.44214 -1.1697,1.16683 -2.3389,2.33413 -3.5078,3.50195 -0.5426,0.53544 -1.0853,1.07088 -1.6443,1.62255 -3.2834,3.30346 -5.6805,5.98127 -6.4104,10.72511 0.6537,4.46629 3.577,6.9598 7.0786,9.60449 1.0334,0.67687 2.0726,1.34474 3.1168,2.00488 0.5673,0.36844 1.1347,0.73689 1.7192,1.11649 1.8569,1.20341 3.7211,2.39494 5.5854,3.58664 1.3052,0.84306 2.6098,1.68698 3.9138,2.53174 2.6763,1.73244 5.355,3.46077 8.036,5.18603 5.3087,3.41977 10.5886,6.88315 15.8689,10.34619 10.537,6.90646 21.0993,13.77405 31.6662,20.63428 12.2234,7.9359 24.4399,15.88244 36.645,23.84668 0.9827,0.64128 1.9655,1.28256 2.9482,1.92383 0.4869,0.31771 0.9738,0.63543 1.4754,0.96277 3.1838,2.07722 6.3694,4.15169 9.5559,6.22473 9.143,5.95093 18.2718,11.9224 27.3829,17.92187 0.4233,0.27879 0.4233,0.27879 2.5662,1.68961 4.2575,2.80363 8.5144,5.6086 12.77,8.41538 1.5871,1.04575 3.1742,2.09149 4.7614,3.1372 0.717,0.47343 1.4339,0.94686 2.1725,1.43463 2.0329,1.33881 4.0723,2.66748 6.1126,3.99506 0.7193,0.47725 1.4387,0.95449 2.1798,1.4462 0.705,0.45829 1.41,0.91658 2.1364,1.38876 0.6303,0.41425 1.2606,0.82851 1.9101,1.25531 1.7737,0.90973 1.7737,0.90973 5.0003,0.98004 3.241,-1.25078 4.814,-2.63528 7.1484,-5.19531 3.3199,-3.59347 6.7946,-6.80956 10.4971,-10.00977 3.5263,-3.09091 6.9143,-6.32552 10.3154,-9.55273 5.6299,-5.32088 11.2801,-10.61628 16.9835,-15.8584 2.9312,-2.69633 5.8497,-5.40543 8.7548,-8.12988 0.6676,-0.62568 1.3351,-1.25136 2.0229,-1.896 1.2855,-1.20596 2.5698,-2.41322 3.8526,-3.62207 3.6321,-3.40608 7.342,-6.65603 11.1987,-9.80615 0,-5.04341 0,-5.04341 -2.9539,-8.12549 -3.916,-3.90865 -8.1442,-6.88223 -12.7844,-9.8667 -0.8298,-0.5434 -1.6595,-1.08681 -2.5144,-1.64668 -2.6815,-1.7534 -5.3705,-3.49485 -8.0598,-5.23613 -1.8644,-1.21578 -3.7284,-2.43234 -5.5918,-3.64966 -3.6848,-2.40551 -7.3725,-4.80654 -11.063,-7.20337 -4.2204,-2.74175 -8.4327,-5.4956 -12.6382,-8.26025 -18.4518,-12.12449 -37.046,-24.02227 -55.7253,-35.79297 -9.7176,-6.13064 -19.3486,-12.39345 -28.9661,-18.67969 -1.901,-1.24228 -3.802,-2.48446 -5.7031,-3.72656 -0.9563,-0.62487 -1.9126,-1.24975 -2.8979,-1.89356 -8.4945,-5.54404 -17.0347,-11.01554 -25.5904,-16.46459 -0.496,-0.31647 -0.992,-0.63294 -1.503,-0.959 -1.4374,-0.91618 -2.8768,-1.82909 -4.3163,-2.74193 -1.7598,-1.14608 -3.4967,-2.32842 -5.2051,-3.54981 -3.3226,-2.3702 -5.6908,-4.0554 -9.7412,-4.80908 -3.4276,0.75574 -5.0501,1.97565 -7.6836,4.29297 z M 302.7773,332 c -1.6866,1.50099 -3.3742,3.00095 -5.0625,4.5 -3.5295,3.17925 -6.9155,6.45124 -10.2461,9.83594 -2.3681,2.32983 -4.8753,4.47989 -7.3906,6.64843 -3.2992,2.89026 -6.518,5.86585 -9.7371,8.84473 -2.0651,1.905 -4.1283,3.80088 -6.26947,5.62061 -7.3655,6.2654 -14.031,13.24902 -20.7954,20.14746 -6.3199,6.43649 -12.6527,12.4562 -19.7188,18.07031 -5.5515,4.53968 -10.4557,9.84194 -15.4675,14.95752 -2.1462,2.18316 -4.2958,4.36295 -6.4492,6.53906 -0.5114,0.51702 -1.0229,1.03403 -1.5498,1.56671 -3.4434,3.45714 -6.9992,6.73071 -10.7151,9.8957 -1.9717,1.69431 -3.7933,3.50392 -5.5984,5.37353 -3.2003,3.2503 -6.5422,6.24724 -10,9.21875 -2.7889,2.48382 -5.3769,5.14836 -7.9961,7.80859 -2.5864,2.54604 -5.3193,4.89288 -8.0703,7.25782 -2.4962,2.21376 -4.8119,4.57746 -7.1406,6.96484 -1.9114,1.86557 -3.9238,3.54687 -5.9805,5.25 -4.4691,3.88653 -7.5592,7.46016 -8.0625,13.5 3.1772,7.62537 12.4398,12.338 19.1289,16.67578 0.4649,0.30503 0.4649,0.30503 2.8174,1.84868 2.4556,1.60992 4.9146,3.2146 7.3754,4.8166 2.456,1.60037 4.9078,3.20707 7.3599,4.81324 2.8679,1.87825 5.736,3.75594 8.606,5.6309 5.3946,3.52527 10.7718,7.07443 16.1265,10.66011 6.163,4.12514 12.3881,8.14068 18.6484,12.11719 19.4672,12.41442 38.744,25.10996 57.96717,37.8988 1.8243,1.21352 3.649,2.42635 5.4742,3.63843 9.8304,6.53055 19.6161,13.09669 29.1544,20.05013 7.2121,5.19043 14.6814,8.72709 23.5917,9.85014 4.5325,-0.92974 6.8703,-3.74858 9.9454,-6.96875 2.2365,-2.21095 4.5934,-4.13644 7.0546,-6.09375 9.6161,-7.73948 18.4397,-16.33162 27.1329,-25.08203 0.5424,-0.54543 1.0848,-1.09085 1.6436,-1.6528 2.718,-2.73572 5.4287,-5.47817 8.1284,-8.23197 4.6406,-4.70789 9.2672,-9.22112 14.4546,-13.32617 7.2784,-5.79642 13.6412,-12.50366 20.1406,-19.14453 7.3281,-7.48759 14.5557,-14.71957 22.7793,-21.22461 5.4817,-4.46118 10.2943,-9.72221 15.2207,-14.77539 11.6525,-11.95251 11.6525,-11.95251 17.8711,-16.88672 6.5575,-5.21738 12.4117,-11.09509 18.3118,-17.0354 1.9009,-1.91184 3.8126,-3.81257 5.7253,-5.71265 1.22,-1.22136 2.4395,-2.44334 3.6582,-3.66601 0.2838,-0.2818 0.2838,-0.2818 1.7201,-1.70784 4.9533,-5.01281 4.9533,-5.01281 6.2135,-8.49138 -0.023,-1.92188 -0.023,-1.92188 -0.375,-3.75 -0.1031,-0.53625 -0.1031,-0.53625 -0.625,-3.25 l -3,-1 v -2 c -0.6788,-0.43232 -1.3575,-0.86464 -2.0569,-1.31006 -22.8736,-14.57791 -22.8736,-14.57791 -32.686,-21.17407 -5.7566,-3.86606 -11.5776,-7.62974 -17.4055,-11.38696 -0.7198,-0.46423 -1.4396,-0.92845 -2.1812,-1.40674 -1.4538,-0.93758 -2.9077,-1.87502 -4.3621,-2.81171 -11.4087,-7.35016 -22.7524,-14.79609 -34.0773,-22.2746 -26.6707,-17.61099 -26.6707,-17.61099 -39.5789,-25.99133 -6.1044,-3.96826 -12.1837,-7.97344 -18.2576,-11.98828 -1.7377,-1.14752 -3.4755,-2.29498 -5.2133,-3.44238 -2.6043,-1.71949 -5.2078,-3.44007 -7.8088,-5.16443 -2.4256,-1.60799 -4.8538,-3.21187 -7.2826,-4.81507 -0.7271,-0.48368 -1.4542,-0.96736 -2.2034,-1.46569 -13.5715,-8.93833 -21.1149,-7.73571 -32.8865,3.23132 z m 349.3677,57.54346 c -1.6695,1.77801 -3.4487,3.37604 -5.3052,4.95654 -0.6188,0.53883 -1.2375,1.07766 -1.875,1.63281 -1.7188,1.4671 -3.4485,2.91642 -5.1875,4.35938 -7.6424,6.38757 -14.7819,13.10925 -21.699,20.28076 -3.6889,3.78304 -7.4879,7.26152 -11.6213,10.55127 -6.0656,4.84059 -11.4512,10.2552 -16.8672,15.80078 -5.4993,5.60861 -10.9673,11.15131 -16.9421,16.26074 -3.2362,2.79305 -6.3255,5.74208 -9.4329,8.67676 -1.4087,1.32569 -2.8176,2.6512 -4.2266,3.97656 -0.352,0.33145 -0.352,0.33145 -2.1338,2.00879 -3.1628,2.97254 -6.3388,5.93093 -9.5146,8.88965 -7.4916,6.98551 -14.9501,14.00592 -22.4052,21.03027 -2.8459,2.68089 -5.6928,5.3605 -8.5403,8.03955 -1.4035,1.32117 -2.8064,2.6431 -4.2085,3.96582 -3.7125,3.50061 -7.4388,6.98491 -11.1857,10.44873 -0.39,0.36223 -0.39,0.36223 -2.3633,2.19532 -1.497,1.39007 -2.9981,2.77571 -4.5039,4.15625 -0.6729,0.62648 -1.3458,1.25297 -2.0391,1.89843 -0.5935,0.54753 -1.1871,1.09506 -1.7986,1.65918 -3.3843,3.72129 -3.743,6.71454 -3.5178,11.66895 3.6232,3.89617 7.2542,6.60534 11.8125,9.3125 8.1409,4.95908 16.062,10.21998 23.97,15.53833 5.6782,3.81174 11.3884,7.56691 17.1355,11.27417 10.1967,6.57846 20.3276,13.25595 30.457,19.9375 1.4613,0.9633 2.9226,1.9266 4.3839,2.88988 12.1531,8.01211 24.2937,16.04255 36.3812,24.15333 4.9183,3.29365 9.8587,6.54264 14.8391,9.74123 5.9443,3.8188 11.8403,7.6836 17.6381,11.72215 2.9386,2.04576 5.8937,4.06705 8.8497,6.0874 1.4932,1.02956 2.9789,2.07016 4.4571,3.1211 8.419,5.96812 15.4079,10.91156 26.041,9.97803 57.65854,-46.33544 114.71462,-99.32762 166.9724,-152.56812 0.9273,-0.93733 1.855,-1.87418 2.7832,-2.81055 1.6937,-1.70976 3.384,-3.42262 5.072,-5.13794 2.0597,-2.08928 4.1301,-4.16715 6.2073,-6.23901 0,-6 0,-6 -1.8125,-8 -10.1224,-10.01209 -23.5464,-17.24733 -35.375,-25 -3.4702,-2.27847 -6.9388,-4.55939 -10.4076,-6.84003 -1.4595,-0.95946 -2.9192,-1.91859 -4.3789,-2.87771 -8.1039,-5.32679 -16.1813,-10.69162 -24.2318,-16.09867 -5.1527,-3.45272 -10.3443,-6.84032 -15.5559,-10.20312 -9.5387,-6.15624 -19.0194,-12.3993 -28.4956,-18.65112 -2.8707,-1.89384 -5.7422,-3.78649 -8.6138,-5.67896 -15.215,-10.03118 -15.215,-10.03118 -22.3337,-14.80151 -6.62,-4.43548 -13.301,-8.75368 -20.0708,-12.95703 -1.5849,-0.98416 -3.1675,-1.97195 -4.7498,-2.96021 -7.4266,-4.62883 -13.1094,-7.6325 -22.0522,-6.48535 -5.6253,1.62027 -9.7062,6.93767 -13.5548,11.09717 z M 432.5273,595.1875 c -0.2999,0.25842 -0.2999,0.25842 -1.8179,1.56616 -7.1858,6.25109 -14.0618,12.83333 -20.9692,19.38794 -6.4178,6.07621 -12.8637,12.03434 -19.7754,17.5459 -11.2364,9.13572 -11.2364,9.13572 -12.75,14.19141 -0.2174,3.14621 0.4671,4.98224 2.2336,7.5498 2.5184,2.78047 5.2094,4.90856 8.2781,7.02441 0.6027,0.42276 1.2055,0.84551 1.8264,1.28107 8.8893,6.18641 17.9783,12.08201 27.0369,18.01581 3.434,2.25436 6.867,4.51017 10.2996,6.76675 0.9848,0.64751 1.97,1.29492 2.955,1.94222 9.3013,6.11211 18.5599,12.28629 27.8079,18.47853 9.2417,6.18598 18.5305,12.26313 27.9581,18.16333 6.5417,4.13647 12.9622,8.43776 19.3701,12.77808 0.4647,0.31458 0.4647,0.31458 2.816,1.90657 4.6901,3.17822 9.3748,6.36424 14.0527,9.56047 10.3685,7.05938 20.8672,13.76352 31.6821,20.11938 4.4533,2.62712 8.7254,5.45326 12.957,8.42529 2.9867,1.44746 5.0073,1.50493 8.2891,1.10938 2.0195,-1.21484 2.0195,-1.21484 3.8125,-2.9375 0.6806,-0.64066 1.3612,-1.28133 2.0625,-1.94141 2.1578,-2.15383 4.2989,-4.32316 6.4375,-6.49609 2.9642,-3.00717 5.9796,-5.69829 9.3164,-8.28125 8.0327,-6.42638 15.2443,-13.77142 22.5269,-21.01904 1.6574,-1.64436 3.319,-3.28198 4.9921,-4.91016 2.437,-2.37616 4.8536,-4.77148 7.2662,-7.17236 0.3739,-0.36155 0.3739,-0.36155 2.266,-2.1912 5.6552,-5.7047 5.6552,-5.7047 6.3541,-9.90377 -0.042,-3.86167 -0.5345,-5.20219 -3.0342,-8.14722 -2.4156,-2.01089 -4.9969,-3.71776 -7.625,-5.4375 -0.8257,-0.55236 -1.6515,-1.10473 -2.5022,-1.67383 -1.8927,-1.2642 -3.7878,-2.52412 -5.6868,-3.77881 -3.4222,-2.26273 -6.8295,-4.54746 -10.2368,-6.83252 -28.5883,-19.1531 -57.3576,-38.03755 -86.1367,-56.90234 -0.546,-0.35807 -1.0921,-0.71614 -1.6547,-1.08505 -5.024,-3.29357 -10.0524,-6.58005 -15.1021,-9.83414 -7.3682,-4.74933 -14.7042,-9.53875 -21.9854,-14.42065 -2.2336,-1.49133 -4.4678,-2.98177 -6.7021,-4.47193 -1.5087,-1.00933 -3.0148,-2.02242 -4.5186,-3.03906 -27.1227,-18.31596 -27.1227,-18.31596 -42.0997,-5.33667 z"
     fill="#000000"
     id="path1"
     style="fill:#ffffff;fill-opacity:1" />
</svg>
